HIERARCHY
ROOT Hips
{
	OFFSET 0.000000 0.000000 0.000000
	CHANNELS 6 Xposition Yposition Zposition Zrotation Yrotation Xrotation 
	JOINT Spine1
	{
		OFFSET -0.013727 5.003763 -0.053727
		CHANNELS 3 Zrotation Yrotation Xrotation
		JOINT Spine2
		{
			OFFSET -0.000000 7.125301 -0.029825
			CHANNELS 3 Zrotation Yrotation Xrotation
			JOINT Chest
			{
				OFFSET -0.000001 7.550063 -0.815971
				CHANNELS 3 Zrotation Yrotation Xrotation
				JOINT Neck1
				{
					OFFSET -0.181677 26.311296 -0.553348
					CHANNELS 3 Zrotation Yrotation Xrotation
					JOINT Neck2
					{
						OFFSET -0.000003 7.709399 2.302586
						CHANNELS 3 Zrotation Yrotation Xrotation
						JOINT Head
						{
							OFFSET -0.000005 6.128913 1.953708
							CHANNELS 3 Zrotation Yrotation Xrotation
							JOINT HeadEnd
							{
								OFFSET 0.003598 16.065401 -1.835379
								CHANNELS 3 Zrotation Yrotation Xrotation
								End Site
								{
									OFFSET 0.000000 0.000000 0.000000
								}
							}
							JOINT Jaw
							{
								OFFSET 0.002637 0.475592 3.094940
								CHANNELS 3 Zrotation Yrotation Xrotation
								End Site
								{
									OFFSET 0.000000 0.000000 0.000000
								}
							}
							JOINT LeftEye
							{
								OFFSET 3.206381 5.380208 7.586883
								CHANNELS 3 Zrotation Yrotation Xrotation
								End Site
								{
									OFFSET 0.000000 0.000000 0.000000
								}
							}
							JOINT RightEye
							{
								OFFSET -3.222440 5.361867 7.558233
								CHANNELS 3 Zrotation Yrotation Xrotation
								End Site
								{
									OFFSET 0.000000 0.000000 0.000000
								}
							}
						}
					}
				}
				JOINT LeftShoulder
				{
					OFFSET 1.621652 23.237164 5.113413
					CHANNELS 3 Zrotation Yrotation Xrotation
					JOINT LeftArm
					{
						OFFSET 14.919845 0.000000 -5.502326
						CHANNELS 3 Zrotation Yrotation Xrotation
						JOINT LeftForeArm
						{
							OFFSET 28.739313 0.000003 -0.002588
							CHANNELS 3 Zrotation Yrotation Xrotation
							JOINT LeftHand
							{
								OFFSET 27.093979 -0.000003 0.002609
								CHANNELS 3 Zrotation Yrotation Xrotation
								JOINT LeftHandThumb1
								{
									OFFSET 2.276481 -1.392045 3.191414
									CHANNELS 3 Zrotation Yrotation Xrotation
									JOINT LeftHandThumb2
									{
										OFFSET 4.012841 -1.828127 1.641655
										CHANNELS 3 Zrotation Yrotation Xrotation
										JOINT LeftHandThumb3
										{
											OFFSET 2.798516 0.000001 -0.000003
											CHANNELS 3 Zrotation Yrotation Xrotation
											JOINT LeftHandThumbEnd
											{
												OFFSET 3.180791 -0.000001 0.000004
												CHANNELS 3 Zrotation Yrotation Xrotation
												End Site
												{
													OFFSET 0.000000 0.000000 0.000000
												}
											}
										}
									}
								}
								JOINT LeftHandIndex1
								{
									OFFSET 3.247554 -0.531998 2.296170
									CHANNELS 3 Zrotation Yrotation Xrotation
									JOINT LeftHandIndex2
									{
										OFFSET 6.364580 0.012062 0.178600
										CHANNELS 3 Zrotation Yrotation Xrotation
										JOINT LeftHandIndex3
										{
											OFFSET 3.662366 0.000000 -0.000000
											CHANNELS 3 Zrotation Yrotation Xrotation
											JOINT LeftHandIndex4
											{
												OFFSET 2.329243 0.000002 0.000004
												CHANNELS 3 Zrotation Yrotation Xrotation
												JOINT LeftHandIndexEnd
												{
													OFFSET 2.759619 -0.180539 -0.113023
													CHANNELS 3 Zrotation Yrotation Xrotation
													End Site
													{
														OFFSET 0.000000 0.000000 0.000000
													}
												}
											}
										}
									}
								}
								JOINT LeftHandMiddle1
								{
									OFFSET 3.163499 0.240982 1.000333
									CHANNELS 3 Zrotation Yrotation Xrotation
									JOINT LeftHandMiddle2
									{
										OFFSET 6.190778 -0.259276 -1.002549
										CHANNELS 3 Zrotation Yrotation Xrotation
										JOINT LeftHandMiddle3
										{
											OFFSET 4.356522 -0.000007 -0.000000
											CHANNELS 3 Zrotation Yrotation Xrotation
											JOINT LeftHandMiddle4
											{
												OFFSET 2.996876 -0.000006 0.000001
												CHANNELS 3 Zrotation Yrotation Xrotation
												JOINT LeftHandMiddleEnd
												{
													OFFSET 2.304294 -0.294571 -0.031740
													CHANNELS 3 Zrotation Yrotation Xrotation
													End Site
													{
														OFFSET 0.000000 0.000000 0.000000
													}
												}
											}
										}
									}
								}
								JOINT LeftHandRing1
								{
									OFFSET 2.882642 -0.053650 -0.322542
									CHANNELS 3 Zrotation Yrotation Xrotation
									JOINT LeftHandRing2
									{
										OFFSET 5.854542 -0.486203 -1.373842
										CHANNELS 3 Zrotation Yrotation Xrotation
										JOINT LeftHandRing3
										{
											OFFSET 4.350580 0.000001 0.000004
											CHANNELS 3 Zrotation Yrotation Xrotation
											JOINT LeftHandRing4
											{
												OFFSET 2.651323 0.000007 0.000003
												CHANNELS 3 Zrotation Yrotation Xrotation
												JOINT LeftHandRingEnd
												{
													OFFSET 1.936111 0.077684 -0.000071
													CHANNELS 3 Zrotation Yrotation Xrotation
													End Site
													{
														OFFSET 0.000000 0.000000 0.000000
													}
												}
											}
										}
									}
								}
								JOINT LeftHandPinky1
								{
									OFFSET 2.865500 -0.310003 -1.600377
									CHANNELS 3 Zrotation Yrotation Xrotation
									JOINT LeftHandPinky2
									{
										OFFSET 5.087853 -1.331141 -1.771231
										CHANNELS 3 Zrotation Yrotation Xrotation
										JOINT LeftHandPinky3
										{
											OFFSET 3.070974 0.000003 0.000000
											CHANNELS 3 Zrotation Yrotation Xrotation
											JOINT LeftHandPinky4
											{
												OFFSET 1.549667 -0.000000 0.000000
												CHANNELS 3 Zrotation Yrotation Xrotation
												JOINT LeftHandPinkyEnd
												{
													OFFSET 1.944894 -0.157802 0.057219
													CHANNELS 3 Zrotation Yrotation Xrotation
													End Site
													{
														OFFSET 0.000000 0.000000 0.000000
													}
												}
											}
										}
									}
								}
							}
						}
					}
				}
				JOINT RightShoulder
				{
					OFFSET -1.380118 23.180307 5.214158
					CHANNELS 3 Zrotation Yrotation Xrotation
					JOINT RightArm
					{
						OFFSET -15.037197 0.000011 -5.545604
						CHANNELS 3 Zrotation Yrotation Xrotation
						JOINT RightForeArm
						{
							OFFSET -28.736639 0.000002 -0.002598
							CHANNELS 3 Zrotation Yrotation Xrotation
							JOINT RightHand
							{
								OFFSET -27.133619 -0.000000 0.002613
								CHANNELS 3 Zrotation Yrotation Xrotation
								JOINT RightHandThumb1
								{
									OFFSET -2.274038 -1.383990 3.163128
									CHANNELS 3 Zrotation Yrotation Xrotation
									JOINT RightHandThumb2
									{
										OFFSET -4.011429 -1.827468 1.640914
										CHANNELS 3 Zrotation Yrotation Xrotation
										JOINT RightHandThumb3
										{
											OFFSET -2.794934 -0.000003 -0.000004
											CHANNELS 3 Zrotation Yrotation Xrotation
											JOINT RightHandThumbEnd
											{
												OFFSET -3.183855 0.000003 0.000000
												CHANNELS 3 Zrotation Yrotation Xrotation
												End Site
												{
													OFFSET 0.000000 0.000000 0.000000
												}
											}
										}
									}
								}
								JOINT RightHandIndex1
								{
									OFFSET -3.253271 -0.520060 2.282867
									CHANNELS 3 Zrotation Yrotation Xrotation
									JOINT RightHandIndex2
									{
										OFFSET -6.341916 0.012472 0.178264
										CHANNELS 3 Zrotation Yrotation Xrotation
										JOINT RightHandIndex3
										{
											OFFSET -3.654874 -0.000009 -0.000001
											CHANNELS 3 Zrotation Yrotation Xrotation
											JOINT RightHandIndex4
											{
												OFFSET -2.327586 0.000000 0.000000
												CHANNELS 3 Zrotation Yrotation Xrotation
												JOINT RightHandIndexEnd
												{
													OFFSET -2.761789 -0.180657 -0.113079
													CHANNELS 3 Zrotation Yrotation Xrotation
													End Site
													{
														OFFSET 0.000000 0.000000 0.000000
													}
												}
											}
										}
									}
								}
								JOINT RightHandMiddle1
								{
									OFFSET -3.168106 0.246593 1.001030
									CHANNELS 3 Zrotation Yrotation Xrotation
									JOINT RightHandMiddle2
									{
										OFFSET -6.180831 -0.258836 -1.000896
										CHANNELS 3 Zrotation Yrotation Xrotation
										JOINT RightHandMiddle3
										{
											OFFSET -4.348906 -0.000001 -0.000001
											CHANNELS 3 Zrotation Yrotation Xrotation
											JOINT RightHandMiddle4
											{
												OFFSET -3.000243 -0.000004 -0.000002
												CHANNELS 3 Zrotation Yrotation Xrotation
												JOINT RightHandMiddleEnd
												{
													OFFSET -2.302518 -0.294371 -0.031706
													CHANNELS 3 Zrotation Yrotation Xrotation
													End Site
													{
														OFFSET 0.000000 0.000000 0.000000
													}
												}
											}
										}
									}
								}
								JOINT RightHandRing1
								{
									OFFSET -2.885693 -0.067952 -0.308858
									CHANNELS 3 Zrotation Yrotation Xrotation
									JOINT RightHandRing2
									{
										OFFSET -5.854198 -0.486132 -1.373731
										CHANNELS 3 Zrotation Yrotation Xrotation
										JOINT RightHandRing3
										{
											OFFSET -4.338814 -0.000003 -0.000001
											CHANNELS 3 Zrotation Yrotation Xrotation
											JOINT RightHandRing4
											{
												OFFSET -2.654906 -0.000004 0.000005
												CHANNELS 3 Zrotation Yrotation Xrotation
												JOINT RightHandRingEnd
												{
													OFFSET -1.933570 0.077524 -0.000052
													CHANNELS 3 Zrotation Yrotation Xrotation
													End Site
													{
														OFFSET 0.000000 0.000000 0.000000
													}
												}
											}
										}
									}
								}
								JOINT RightHandPinky1
								{
									OFFSET -2.866430 -0.342798 -1.584144
									CHANNELS 3 Zrotation Yrotation Xrotation
									JOINT RightHandPinky2
									{
										OFFSET -5.091369 -1.332054 -1.772386
										CHANNELS 3 Zrotation Yrotation Xrotation
										JOINT RightHandPinky3
										{
											OFFSET -3.062666 -0.000007 0.000000
											CHANNELS 3 Zrotation Yrotation Xrotation
											JOINT RightHandPinky4
											{
												OFFSET -1.546528 0.000006 -0.000002
												CHANNELS 3 Zrotation Yrotation Xrotation
												JOINT RightHandPinkyEnd
												{
													OFFSET -1.945122 -0.157721 0.057211
													CHANNELS 3 Zrotation Yrotation Xrotation
													End Site
													{
														OFFSET 0.000000 0.000000 0.000000
													}
												}
											}
										}
									}
								}
							}
						}
					}
				}
			}
		}
	}
	JOINT LeftLeg
	{
		OFFSET 10.043214 -8.434526 2.595654
		CHANNELS 3 Zrotation Yrotation Xrotation
		JOINT LeftShin
		{
			OFFSET -0.000001 -43.221752 -0.802913
			CHANNELS 3 Zrotation Yrotation Xrotation
			JOINT LeftFoot
			{
				OFFSET 0.000002 -42.155094 -3.481523
				CHANNELS 3 Zrotation Yrotation Xrotation
				JOINT LeftToeBase
				{
					OFFSET 0.000001 -5.059475 13.231529
					CHANNELS 3 Zrotation Yrotation Xrotation
					JOINT LeftToeEnd
					{
						OFFSET -0.009607 -1.647616 6.513017
						CHANNELS 3 Zrotation Yrotation Xrotation
						End Site
						{
							OFFSET 0.000000 0.000000 0.000000
						}
					}
				}
			}
		}
	}
	JOINT RightLeg
	{
		OFFSET -10.047277 -8.295259 2.620317
		CHANNELS 3 Zrotation Yrotation Xrotation
		JOINT RightShin
		{
			OFFSET 0.000001 -43.362209 -0.805556
			CHANNELS 3 Zrotation Yrotation Xrotation
			JOINT RightFoot
			{
				OFFSET 0.000002 -42.117393 -3.478399
				CHANNELS 3 Zrotation Yrotation Xrotation
				JOINT RightToeBase
				{
					OFFSET -0.000001 -5.079610 13.284196
					CHANNELS 3 Zrotation Yrotation Xrotation
					JOINT RightToeEnd
					{
						OFFSET 0.009532 -1.634383 6.460591
						CHANNELS 3 Zrotation Yrotation Xrotation
						End Site
						{
							OFFSET 0.000000 0.000000 0.000000
						}
					}
				}
			}
		}
	}
}
MOTION
Frames: 4
Frame Time: 0.033333
-0.995233 93.639015 -13.760264 0.025436 -0.785988 -5.534739 3.721491 0.889247 2.193216 0.245864 3.465299 -4.047593 1.590756 2.115189 14.864166 -7.840071 9.273153 23.628288 0.640222 3.036919 -3.801196 0.875460 1.915251 -13.913281 0.000077 -0.000022 0.000006 -0.023364 0.063399 0.089656 0.639889 -3.694734 -10.611720 -0.690726 3.806988 -10.607993 -10.643807 -0.421100 7.954249 -38.728863 -33.764286 -17.346375 178.504440 -51.676937 -179.184738 16.438795 -9.591328 -20.420164 -5.882102 9.861277 0.702590 -10.936858 -0.360573 7.156196 0.000002 8.774810 0.000000 -16.247234 18.318041 6.210831 -1.844030 2.498502 -2.507275 -10.163589 4.678937 4.621104 -20.975994 -0.000004 0.000003 -21.226255 2.451692 -3.593992 0.000001 -0.000006 0.000001 -1.362680 2.240795 -0.746323 -21.334892 0.584909 3.008321 -13.821195 -0.000003 0.000002 -23.887131 -0.249078 -0.839480 -60.304092 2.399312 -0.917065 -0.294023 1.679688 0.833255 -14.218194 0.093216 1.300579 -34.212002 -0.287564 0.967169 -20.033180 0.964535 1.212841 -0.000000 -0.000000 0.000000 -3.440385 0.788232 0.501655 -15.928169 -3.167304 2.999702 -6.338815 -0.000002 0.000001 -18.123413 3.648175 -4.905660 -0.000004 -0.000000 -0.000002 10.728872 21.301407 11.422948 32.984756 48.743050 -2.102180 -178.825714 62.138817 -178.748260 -18.084509 7.589722 -28.340712 2.243539 -5.255031 -3.180152 14.282878 -0.826595 6.952498 -0.000001 -12.690587 0.000000 16.254820 -17.798018 2.729807 1.665666 -1.955920 -2.878296 4.727794 -4.170584 4.993922 11.020512 0.000002 0.000000 12.109031 -3.735710 -2.866776 -0.000000 -0.000002 0.000001 1.291984 -1.928548 -1.498088 14.800113 0.567468 3.865606 14.242554 -1.341736 -6.660644 19.631937 0.143923 -0.648244 49.674091 -0.753831 -5.974457 0.353029 -1.511150 -0.031939 20.222767 3.684303 2.316627 18.787245 0.000003 -0.000000 10.751610 -0.479870 1.397904 -0.000000 0.000003 -0.000002 3.273805 0.305948 -0.580110 21.486788 11.830360 2.266131 8.162916 0.000002 -0.000002 18.399055 -3.798980 -4.940567 0.000003 0.000000 0.000000 19.753407 11.818752 -15.032523 -0.222636 -0.708097 19.965494 -21.042326 -6.903098 7.624140 1.663518 -1.993709 -2.069416 0.000000 0.000000 0.000002 -19.275291 -15.121649 10.667868 0.096449 0.633250 20.217812 17.144194 2.835835 -17.633951 -1.431574 0.846908 -2.058646 0.000000 0.000000 -0.000001 
-0.095521 93.401833 -13.574511 0.647824 -0.653689 -5.555748 3.615322 0.972154 2.202011 0.256985 3.690401 -4.052767 1.004564 2.076597 14.734321 -8.266726 9.541764 22.963575 0.476515 2.696810 -3.795438 0.822192 1.687839 -14.299073 0.000077 -0.000024 0.000005 -0.030960 0.083820 0.062186 0.634448 -3.658591 -10.581471 -0.697487 3.814932 -10.587552 -10.577570 -0.453455 7.809150 -41.203720 -34.656910 -16.219860 178.694107 -51.818222 -179.355194 15.745502 -9.291018 -20.777157 -5.882100 9.861278 0.702590 -10.936859 -0.360575 7.156198 -0.000001 8.774813 -0.000001 -16.334864 18.437365 6.082106 -1.844031 2.498502 -2.507276 -10.163590 4.678941 4.621105 -20.975994 -0.000003 0.000003 -21.226255 2.451694 -3.593992 0.000001 -0.000007 -0.000000 -1.362679 2.240797 -0.746323 -21.334892 0.584909 3.008322 -13.821197 -0.000001 0.000002 -23.887133 -0.249075 -0.839480 -60.335285 2.444487 -1.006284 -0.294025 1.679685 0.833255 -14.218194 0.093215 1.300581 -34.211998 -0.287561 0.967171 -20.033180 0.964537 1.212842 -0.000000 0.000000 0.000000 -3.440385 0.788231 0.501655 -15.928167 -3.167305 2.999705 -6.338818 -0.000001 0.000002 -18.123411 3.648178 -4.905660 -0.000005 -0.000000 -0.000001 10.042583 21.513123 11.295652 35.092281 48.171368 -1.828587 -179.032928 61.085732 -178.893448 -18.133284 7.292476 -28.649706 2.243540 -5.255033 -3.180155 14.282878 -0.826593 6.952495 -0.000002 -12.690593 -0.000001 16.438450 -17.907204 2.790574 1.665666 -1.955921 -2.878296 4.727794 -4.170586 4.993921 11.020512 0.000005 -0.000003 12.109033 -3.735711 -2.866781 -0.000000 -0.000002 0.000000 1.291984 -1.928546 -1.498087 14.800111 0.567469 3.865602 14.242556 -1.341735 -6.660651 19.631939 0.143926 -0.648245 50.041874 -0.845589 -5.908528 0.353029 -1.511151 -0.031939 20.222769 3.684308 2.316627 18.787247 0.000005 -0.000002 10.751611 -0.479867 1.397904 -0.000001 0.000002 -0.000001 3.273804 0.305947 -0.580113 21.486795 11.830366 2.266130 8.162916 0.000003 -0.000001 18.399054 -3.798977 -4.940570 0.000003 -0.000001 -0.000000 18.504606 12.951495 -16.468620 -0.337881 -0.745216 23.005814 -20.587280 -8.550899 6.521061 1.658217 -1.990317 -1.960240 0.000000 -0.000000 0.000002 -20.769075 -15.184947 10.544064 0.136449 0.648634 20.864870 17.703514 3.284328 -17.542189 -1.426805 0.864228 -2.238035 0.000000 0.000000 -0.000001 
0.633362 93.262627 -13.373563 1.030928 -0.755637 -5.538544 3.565247 1.090999 2.227471 0.298632 3.886288 -4.043126 0.714693 2.152431 14.613959 -8.879922 10.051474 22.538101 0.337288 2.408637 -3.797354 0.733473 1.512705 -14.679042 0.000077 -0.000022 0.000006 -0.034124 0.110679 0.068310 0.626469 -3.619784 -10.545630 -0.697175 3.837895 -10.552853 -10.576443 -0.175855 7.707428 -43.396187 -34.686947 -14.857351 178.937820 -51.737934 -179.637680 14.837418 -8.674639 -20.505413 -5.882102 9.861278 0.702589 -10.936860 -0.360575 7.156197 -0.000000 8.774812 -0.000002 -16.438326 18.528715 6.043923 -1.844032 2.498502 -2.507275 -10.163591 4.678940 4.621104 -20.975996 -0.000002 0.000003 -21.226257 2.451694 -3.593994 0.000000 -0.000006 -0.000002 -1.362680 2.240797 -0.746323 -21.334894 0.584909 3.008321 -13.821198 -0.000001 0.000003 -23.887131 -0.249076 -0.839481 -60.471260 2.409924 -1.068037 -0.294024 1.679686 0.833255 -14.218192 0.093214 1.300580 -34.212013 -0.287561 0.967172 -20.033184 0.964537 1.212842 -0.000001 0.000000 0.000000 -3.440385 0.788232 0.501655 -15.928169 -3.167306 2.999704 -6.338818 -0.000001 0.000002 -18.123413 3.648176 -4.905662 -0.000004 0.000000 -0.000002 9.488018 21.737646 11.376776 36.772762 47.589268 -1.370504 -179.309479 60.351295 -179.053909 -18.159157 6.990801 -29.009771 2.243539 -5.255033 -3.180155 14.282877 -0.826594 6.952497 -0.000001 -12.690591 0.000000 16.585848 -18.016762 2.830702 1.665664 -1.955919 -2.878296 4.727793 -4.170582 4.993919 11.020512 0.000003 -0.000001 12.109033 -3.735711 -2.866778 0.000001 -0.000002 -0.000000 1.291984 -1.928547 -1.498088 14.800111 0.567468 3.865603 14.242554 -1.341736 -6.660648 19.631939 0.143925 -0.648242 50.183170 -0.948725 -5.851594 0.353028 -1.511149 -0.031938 20.222771 3.684304 2.316629 18.787251 0.000003 -0.000000 10.751610 -0.479868 1.397905 -0.000001 0.000002 -0.000002 3.273804 0.305947 -0.580110 21.486794 11.830361 2.266132 8.162916 0.000002 0.000000 18.399054 -3.798979 -4.940568 0.000003 0.000001 -0.000001 17.653736 13.581049 -17.226404 -0.384146 -0.789483 24.844889 -20.120623 -9.342318 5.468588 1.652608 -1.974901 -1.874315 0.000000 -0.000000 0.000002 -21.853065 -15.249514 10.510198 0.157964 0.708066 21.070812 18.212908 3.696042 -17.147657 -1.423325 0.857132 -2.481757 0.000000 0.000000 -0.000001 
1.160561 93.176529 -13.211274 1.247031 -0.944086 -5.503540 3.502601 1.156988 2.214923 0.328160 4.084008 -4.039586 0.575074 2.295961 14.573531 -9.414483 10.501448 22.251272 0.278398 2.237686 -3.822838 0.675199 1.446987 -15.002064 0.000077 -0.000022 0.000006 -0.033128 0.111428 0.077591 0.620558 -3.600680 -10.513953 -0.690924 3.838990 -10.520335 -10.577486 0.176567 7.634670 -44.831413 -34.189419 -13.789627 179.030197 -51.519329 -179.762283 14.051455 -8.130082 -20.042824 -5.882098 9.861278 0.702590 -10.936857 -0.360577 7.156196 0.000002 8.774813 -0.000001 -16.529644 18.571537 6.042555 -1.844030 2.498502 -2.507276 -10.163589 4.678938 4.621103 -20.975994 -0.000007 0.000002 -21.226255 2.451690 -3.593992 0.000000 -0.000005 -0.000001 -1.362680 2.240796 -0.746323 -21.334887 0.584905 3.008319 -13.821194 -0.000006 0.000003 -23.887129 -0.249082 -0.839480 -60.614223 2.382724 -1.117270 -0.294025 1.679687 0.833256 -14.218190 0.093212 1.300578 -34.212002 -0.287569 0.967171 -20.033180 0.964533 1.212842 -0.000000 0.000000 0.000001 -3.440385 0.788232 0.501655 -15.928167 -3.167309 2.999703 -6.338819 -0.000002 0.000002 -18.123411 3.648175 -4.905661 -0.000004 -0.000001 -0.000003 9.219449 21.867962 11.525897 37.830666 47.213367 -0.993896 -179.570404 59.871933 -179.247452 -18.084171 6.808686 -29.261435 2.243540 -5.255033 -3.180155 14.282875 -0.826591 6.952495 -0.000002 -12.690592 -0.000001 16.611631 -18.083075 2.851467 1.665666 -1.955920 -2.878296 4.727793 -4.170582 4.993918 11.020512 0.000003 -0.000002 12.109033 -3.735709 -2.866778 -0.000000 -0.000002 0.000000 1.291985 -1.928549 -1.498088 14.800114 0.567469 3.865605 14.242553 -1.341734 -6.660649 19.631935 0.143928 -0.648245 50.169094 -0.983064 -5.809635 0.353028 -1.511148 -0.031941 20.222771 3.684305 2.316629 18.787245 0.000005 -0.000001 10.751610 -0.479866 1.397903 -0.000001 0.000001 -0.000002 3.273804 0.305947 -0.580109 21.486790 11.830360 2.266129 8.162916 0.000002 -0.000002 18.399054 -3.798977 -4.940568 0.000003 -0.000001 -0.000000 17.131750 13.877592 -17.642841 -0.408714 -0.814952 25.985420 -19.742329 -9.701795 4.591861 1.647639 -1.964482 -1.868899 -0.000000 -0.000000 0.000002 -22.593086 -15.351613 10.491916 0.170277 0.765548 21.086308 18.643259 4.032670 -16.736647 -1.422655 0.840702 -2.668097 0.000000 0.000000 -0.000001 
